<?xml version="1.0" encoding="UTF-8" standalone="no"?>
<svg width="24px" height="24px" viewBox="0 0 24 24" version="1.1" xmlns="http://www.w3.org/2000/svg" xmlns:xlink="http://www.w3.org/1999/xlink" xmlns:sketch="http://www.bohemiancoding.com/sketch/ns">
    <!-- Generator: Sketch 3.3.2 (12043) - http://www.bohemiancoding.com/sketch -->
    <title>jpg</title>
    <desc>Created with Sketch.</desc>
    <defs>
        <linearGradient x1="50%" y1="0.404575893%" x2="50%" y2="100%" id="linearGradient-1">
            <stop stop-color="#000000" stop-opacity="0.2" offset="0%"></stop>
            <stop stop-color="#000000" stop-opacity="0.4" offset="100%"></stop>
        </linearGradient>
        <linearGradient x1="50%" y1="32.9998406%" x2="50%" y2="100%" id="linearGradient-2">
            <stop stop-color="#FFFFFF" offset="0%"></stop>
            <stop stop-color="#EAEAEA" offset="100%"></stop>
        </linearGradient>
        <linearGradient x1="50%" y1="0%" x2="50%" y2="100%" id="linearGradient-3">
            <stop stop-color="#0074D9" offset="0%"></stop>
            <stop stop-color="#63CEF7" offset="100%"></stop>
        </linearGradient>
    </defs>
    <g id="R2" stroke="none" stroke-width="1" fill="none" fill-rule="evenodd" sketch:type="MSPage">
        <g id="jpg" sketch:type="MSArtboardGroup">
            <g id="Frame" sketch:type="MSLayerGroup" transform="translate(0.000000, 2.000000)">
                <rect id="Frame-Stroke" fill="url(#linearGradient-1)" sketch:type="MSShapeGroup" x="0" y="0" width="24" height="20" rx="2"></rect>
                <rect id="Frame-Body" fill="url(#linearGradient-2)" sketch:type="MSShapeGroup" x="1" y="1" width="22" height="18" rx="1"></rect>
            </g>
            <rect id="Backdrop" fill="url(#linearGradient-3)" sketch:type="MSShapeGroup" x="3" y="5" width="18" height="14"></rect>
            <path d="M3,16 L8,9 L13,16 L17,13 L21,16 L21,19 L3,19 L3,16 Z" id="Mountain-Base" fill="#91D4A4" sketch:type="MSShapeGroup"></path>
            <path d="M3,17 L7,12 L7,17 L9,14 L12,18 L15,16 L16,17 L18,15 L21,17 L21,19 L3,19 L3,17 Z" id="Mountain-Shadows" fill="#5FB278" sketch:type="MSShapeGroup"></path>
            <circle id="Sun" fill="#FFFFFF" sketch:type="MSShapeGroup" cx="15.5" cy="9.5" r="1.5"></circle>
        </g>
    </g>
</svg>